<svg width="265" height="545" viewBox="0 0 265 545" fill="none" xmlns="http://www.w3.org/2000/svg">
<path d="M80.1054 543.829C84.2439 540.672 85.608 538.148 86.2759 534.422C86.7981 531.508 84.3349 531.478 81.3883 531.76C76.9704 532.179 69.0999 532.187 65.4966 528.688C64.205 527.434 65.0478 525.605 65.4653 523.854C65.492 523.742 65.5125 523.626 65.5261 523.505C65.5792 523.035 65.435 522.492 65.1139 522.145C64.6198 521.61 63.8083 521.619 63.1631 521.956C62.9601 522.062 62.7494 522.187 62.5339 522.326C59.943 523.997 56.4208 524.295 54.6329 521.783C53.54 520.247 52.8302 518.546 53.2437 516.777C53.2537 516.734 53.263 516.693 53.2718 516.654C53.5118 515.59 54.4566 515.313 55.525 515.534C58.426 516.133 60.6724 513.692 63.3798 512.49C63.558 512.411 63.7488 512.363 63.9538 512.352C65.359 512.275 66.7138 512.951 67.613 511.869C68.4671 510.84 69.4349 509.43 70.5974 508.566C72.1216 507.433 74.0805 508.777 73.8387 510.66C73.529 513.072 72.1993 516.219 72.1605 518.656C72.1396 519.966 73.1436 521.002 74.4537 521.017C75.5549 521.029 76.8356 520.824 77.7623 520.498C78.4414 520.26 78.6954 519.528 78.5462 518.823C77.8538 515.646 79.6511 510.553 79.6863 507.01C79.7426 501.589 90.1746 495.539 94.1631 493.7C99.0557 491.449 109.824 495.763 114.427 497.974C118.684 500.016 120.343 503.064 125.464 499C130.369 495.475 130.629 492.559 132.252 487.272C134.482 480.018 135.306 477.644 132.112 472.468C131.105 470.835 128.984 470.342 127.29 471.243C124.71 472.615 123.004 473.566 121.218 473.931C118.746 474.437 118.13 477.701 116.713 479.789C114.172 483.534 107.445 479.921 105.696 480.966C104.941 481.419 104.352 481.83 103.857 482.206C100.35 484.873 95.6668 483.158 91.2964 482.602C91.0054 482.565 90.6945 482.505 90.3613 482.417C81.1078 479.955 85.493 472.54 93.6354 473.852C94.8597 474.05 96.1331 474.529 97.3308 474.949C97.4497 474.991 97.5522 474.857 97.4816 474.753C96.5215 473.348 93.7807 469.247 91.539 466.74C90.1397 465.175 88.1718 465.505 87.3098 467.419C86.5908 469.016 85.8636 470.958 85.1459 472.289C84.8602 472.819 84.6551 473.1 84.1051 473.344C81.3965 474.547 80.5551 477.938 82.4606 480.207C83.2379 481.133 83.8435 482.078 84.0648 482.971C85.2102 487.591 79.9449 490.866 75.6308 492.509C73.7421 493.228 71.5763 493.084 69.9707 491.857C67.6063 490.05 66.8003 487.85 67.1603 485.207C67.5664 482.226 67.0607 479.116 65.8355 476.369C65.6397 475.93 65.4667 475.485 65.2974 475.025C64.3317 472.402 61.6315 472.211 58.8419 472.029C58.772 472.024 58.7026 472.017 58.6336 472.007C57.7767 471.881 57.2013 470.979 57.2407 470.114C57.3248 468.266 57.45 466.404 56.2331 465.011C53.6667 462.071 51.5207 459.993 47.8197 460.818C46.0947 461.203 44.8346 462.58 43.7631 463.985C42.5485 465.578 40.9371 467.171 39.4953 466.875C38.2039 466.609 37.8219 464.926 38.2934 463.695C38.9185 462.063 40.2277 460.402 40.5843 458.84C40.7893 457.939 40.5783 457.668 40.2216 457.088C36.7989 451.537 33.126 455.169 30.3593 456.506C29.2389 457.048 28.2696 456.39 28.4514 455.159C28.5667 454.379 28.3268 453.352 27.656 452.937C27.3067 452.721 26.9322 452.573 26.5277 452.398C20.4813 449.771 19.8179 452.743 18.7506 457.951C18.6742 458.329 18.3749 458.516 18.03 458.639C17.7081 458.753 17.3527 458.718 17.0284 458.61C14.7032 457.837 14.0446 458.315 13.1008 459.888C12.8668 460.278 12.2729 460.121 12.2774 459.666C12.2784 459.571 12.3094 459.479 12.3674 459.404C13.7112 457.666 15.6743 455.821 16.3955 453.59C16.8157 452.291 16.3347 450.708 15.0006 450.415C13.3285 450.047 10.971 450.631 9.19176 450.285C6.36992 449.736 1.05942 445.781 0.513791 442.805C0.300043 441.645 2.5466 438.2 4.64858 437.152C6.1162 436.42 7.45533 438.32 6.81268 439.829C6.35383 440.906 5.38807 441.631 4.548 442.693C3.91545 443.492 3.43352 444.741 4.21697 445.393C6.05759 446.921 11.7015 447.958 13.9087 448.014C17.0517 448.096 17.2999 445.368 18.1614 443.184C18.7546 441.697 20.9269 441.789 22.2681 442.663C23.2316 443.291 24.2094 443.868 25.1837 444.654C26.199 445.476 25.8785 446.511 26.1422 447.758C26.2061 448.061 26.381 448.325 26.5831 448.559C26.8232 448.837 26.7796 448.818 27.1828 448.833C27.3539 448.839 27.5205 448.773 27.6357 448.646L27.7572 448.512C27.8535 448.407 28.0079 448.377 28.1364 448.44L28.1756 448.459C28.2736 448.507 28.3313 448.611 28.32 448.719C28.3077 448.837 28.3761 448.948 28.4911 448.978C29.173 449.156 30.8369 449.402 32.3026 449.715C33.2373 449.915 34.2788 449.709 35.0345 449.124C36.9972 447.604 38.8437 450.276 41.1568 451.177C41.7123 451.393 42.443 451.542 43.3791 451.685C44.3149 451.829 45.2614 451.599 46.0545 451.082C47.0594 450.427 48.043 449.92 49.0815 450.344C49.669 450.583 50.0365 451.151 50.1484 451.775C50.634 454.485 52.1847 457.18 54.9372 457.151C55.5236 457.145 56.0987 457.133 56.6528 457.108C57.6393 457.064 58.584 456.69 59.3145 456.025C61.805 453.761 63.3349 451.25 65.2975 449.112C67.1547 447.088 70.9831 447.69 70.6704 450.419C70.3112 453.568 63.571 457.554 63.471 460.651C63.4685 460.728 63.4582 460.804 63.4343 460.877C63.4117 460.946 63.3999 461.022 63.4018 461.094C63.4527 463.066 64.6506 463.756 66.2125 463.984C69.0474 464.398 71.655 462.57 73.853 460.733C74.8034 459.938 75.5531 459.605 76.4797 459.209C79.1506 458.067 80.6448 455.329 80.9427 452.439C81.2017 449.927 81.5592 447.211 81.9139 446.042C84.3129 438.427 86.7616 429.554 92.291 423.615C94.1563 421.61 99.656 418.646 102.095 421.043C102.361 421.304 102.442 421.692 102.395 422.062C102.251 425.852 103.161 432.944 105.355 436.214C106.441 437.832 109.904 436.716 111.397 438.195C111.903 438.695 112.181 439.265 112.367 439.859C113.276 442.766 115.25 442.618 115.222 439.572C115.2 437.164 115.022 434.272 115.254 432.036C115.502 429.633 117.98 428.99 119.897 430.46C121.03 431.328 122.07 432.345 122.61 433.171C124.505 436.065 121.743 439.514 124.654 440.398C125.611 440.688 128.588 440.409 129.938 440.399C130.006 440.399 130.073 440.414 130.135 440.443C130.413 440.574 130.485 440.928 130.251 441.128C129.076 442.137 126.708 443.434 125.866 444.116C123.344 446.162 128.994 447.869 132.241 447.814C134.459 447.776 135.213 451.021 136.087 456.253C136.278 457.397 135.921 458.546 135.509 459.631C135.053 460.834 136.248 461.76 137.508 461.495C138.292 461.33 139.083 461.131 139.685 461.298C141.688 461.853 140.907 464.36 140.852 466.388C140.819 467.601 141.688 468.769 142.897 468.668C142.945 468.664 142.995 468.659 143.045 468.653C154.192 467.306 150.575 462.422 152.828 454.604C152.941 454.209 153.368 453.609 153.916 452.945C155.712 450.77 156.366 448.038 155.6 445.323C155.589 445.282 155.577 445.241 155.566 445.2C154.856 442.637 156.948 441.611 158.684 443.625C159.066 444.068 159.457 444.507 159.873 444.883C161.15 446.039 163.174 445.409 163.426 443.704C163.616 442.415 163.45 440.94 163.556 439.948C164.058 435.226 162.926 434.421 159.466 431.859C155.829 429.168 158.928 427.303 161.49 426.149C162.202 425.829 162.826 425.337 163.276 424.698C163.967 423.717 164.192 422.486 163.947 421.31C163.243 417.943 163.124 415.588 163.267 411.655C163.285 411.161 163.163 410.513 162.976 409.82C162.338 407.464 162.1 404.738 163.906 403.097C167.964 399.411 172.36 404.775 171.237 397.165C170.846 394.508 171.369 391.776 172.75 389.473C173.631 388.003 174.414 386.53 175.396 384.817C176.155 383.493 177.616 383.042 179.115 382.831C180.332 382.66 181.523 382.199 182.367 381.305C183.519 380.085 183.925 378.38 183.803 376.706C183.355 370.582 184.664 363.993 185.927 358.006C186.015 357.586 186.133 357.174 186.284 356.773C187.782 352.781 189.624 348.627 188.971 344.243C188.74 342.686 188.771 339.752 188.38 337.6C188.123 336.185 186.893 334.902 185.563 335.45C184.947 335.703 184.369 336.168 183.82 336.695C182.492 338.02 183.953 339.463 185.07 340.442C189.492 344.311 186.529 348.211 181.385 347.485C180.292 347.331 179.505 346.447 178.531 345.872C177.471 345.247 176.068 345.542 175.296 346.5C175.05 346.805 174.843 347.154 174.662 347.554C171.645 354.202 179.851 359.382 174.764 363.039C172.569 364.616 169.586 363.721 167.416 362.109C166.995 361.795 166.571 361.487 166.142 361.179C164.347 359.89 162.006 359.93 160.04 360.938C159.738 361.092 159.429 361.239 159.1 361.38C157.98 361.859 156.701 361.572 155.766 360.792C154.134 359.43 151.944 359.887 150.836 361.701C150.557 362.159 150.251 362.576 149.898 362.91C149.138 363.626 147.875 363.459 147.403 362.528C146.448 360.647 146.755 357.108 147.137 354.29C147.32 352.934 145.909 351.966 144.669 352.546C138.522 355.478 138.597 347.36 133.688 345.857C130.445 344.861 128.852 349.955 128.111 353.662C127.923 354.602 126.653 354.86 126.151 354.044C126.054 353.887 125.917 353.759 125.754 353.673L123.699 352.6C123.517 352.505 123.324 352.435 123.125 352.391L122.276 352.204C122.108 352.167 121.967 352.054 121.892 351.899C121.87 351.854 121.855 351.809 121.848 351.759C121.442 349.054 124.872 343.372 121.792 341.466C120.04 340.382 117.881 339.221 115.641 339.775C112.099 340.649 110.605 343.458 107.972 345.521C106.583 346.611 103.546 347.236 101.899 348.17C99.1224 349.741 97.012 353.328 93.8256 353.824C93.0705 353.941 92.4708 353.297 92.4125 352.535L92.3222 351.799C92.3073 351.677 92.3036 351.555 92.3113 351.432C92.3306 351.125 92.4246 350.82 92.5784 350.554C95.771 345.026 95.8163 344.775 98.9361 343.001C101.01 341.821 102.158 339.326 101.028 337.225C99.6467 334.655 96.3796 333.923 93.8826 335.432C93.3772 335.738 92.8539 336.037 92.2796 336.327C90.9701 336.988 89.5231 336.53 88.434 335.547C77.7721 325.941 79.0213 336.762 78.125 341.943C77.956 342.92 77.2872 344.217 76.3837 343.809C73.8105 342.644 74.6607 336.908 75.3896 333.131C75.7241 331.398 75.5507 329.602 74.6525 328.082C73.4128 325.984 71.6398 323.561 70.1921 323.116C67.5154 322.291 65.9869 326.281 63.8229 328.03C63.4379 328.341 62.9097 328.642 62.499 328.366C62.1389 328.124 61.9253 327.624 61.9572 327.191C62.0278 326.234 62.5988 325.233 62.4692 324.942C60.8942 321.42 60.1703 318.613 58.5927 315.803C57.3274 313.549 54.4136 312.674 52.4511 314.356C51.6488 315.044 51.0535 316.125 50.8612 317.164C50.457 319.348 50.2151 321.403 49.5931 323.777C49.5468 323.954 49.3924 324.081 49.2102 324.094C48.9891 324.11 48.7929 323.956 48.7448 323.739C48.2355 321.446 46.6641 318.611 46.9274 316.343C47.0668 315.136 48.4688 314.499 49.7549 313.769C51.5232 312.764 51.3946 310.347 49.4335 309.809C46.767 309.077 42.8639 309.653 40.7122 308.506C40.6861 308.492 40.6618 308.476 40.6384 308.458C40.3775 308.256 40.3435 307.875 40.5641 307.629C41.2579 306.859 42.1163 305.913 42.8278 305.389C44.064 304.483 45.5725 304.917 46.5726 303.877C46.6224 303.825 46.6936 303.798 46.7647 303.808C46.8525 303.82 46.9233 303.888 46.9442 303.974C47.4997 306.263 48.8539 305.78 50.101 307.206C52.466 309.915 58.3595 307.395 59.768 308.836C63.8255 312.981 64.5633 317.85 71.4111 319.63C72.0301 319.791 75.7763 323.449 76.6822 324.003C78.7386 325.646 80.6737 326.486 82.2462 328.062C83.5921 329.411 85.0592 330.799 86.9056 331.271C88.4645 331.669 90.078 331.344 91.3842 330.404C94.0581 328.481 95.9677 326.762 99.53 326.268C99.7323 326.24 99.9381 326.295 100.103 326.416C102.488 328.207 107.542 333.536 110.77 332.613C115.816 331.168 115.47 328.31 122.299 327.92C122.402 327.915 122.506 327.96 122.569 328.042C124.545 330.007 124.886 331.703 125.224 334.094C125.338 334.906 126.311 335.243 126.904 334.677C127.249 334.348 127.774 334.304 128.169 334.57C129.173 335.247 130.33 336.013 131.314 336.449C132.8 337.108 134.169 337.915 135.498 338.774C139.1 341.102 142.818 337.337 147.107 337.281C147.511 337.276 147.961 337.288 148.465 337.315C148.806 337.333 149.147 337.26 149.449 337.099C150.028 336.79 150.718 336.421 151.206 336.064C151.332 335.972 151.515 336.011 151.581 336.152C151.616 336.225 151.689 336.276 151.771 336.285C153.523 336.478 154.798 336.664 155.822 337.055C158.526 338.088 161.811 338.839 164.703 338.721C165.947 338.67 167.387 338.092 168.189 337.14C168.368 336.927 168.537 336.742 168.703 336.58C170.562 334.769 172.441 333.163 173.487 330.788C173.65 330.418 173.859 330.114 174.129 329.919C174.18 329.883 174.231 329.846 174.281 329.81C176.376 328.323 175.042 325.666 172.66 326.625C170.645 327.437 168.604 328.847 167.265 328.022C163.094 325.46 170.046 311.786 165.439 310.066C162.055 308.802 158.283 314.692 155.005 316.63C154.796 316.752 154.561 316.822 154.32 316.836L153.889 316.86C151.62 317.043 151.025 315.046 152.682 313.486C153.478 312.737 154.371 311.956 155.133 311.233C156.069 310.345 156.357 309.008 155.697 307.9C155.247 307.145 154.456 306.599 153.598 306.408C153.497 306.385 153.394 306.362 153.292 306.337C151.798 305.974 151.869 304.461 153.223 303.73C154.084 303.265 154.92 302.802 155.122 302.226C155.978 299.779 151.285 298.481 151.504 296.027C151.603 294.918 152.796 294.082 153.871 294.37C154.616 294.57 155.324 295.091 156.43 295.544C156.567 295.6 156.721 295.589 156.851 295.519C156.991 295.443 157.089 295.305 157.097 295.146C157.156 293.918 156.586 291.743 156.07 290.793C154.826 288.506 152.504 287.751 150.186 287.983C150.052 287.996 149.922 287.926 149.866 287.802C149.811 287.68 149.843 287.531 149.944 287.443C153.2 284.613 154.02 289.126 156.922 289.432C157.18 289.459 157.444 289.408 157.668 289.276C158.267 288.924 158.683 288.342 159.122 287.745C159.257 287.562 159.522 287.541 159.686 287.7C159.747 287.759 159.787 287.838 159.801 287.923C159.879 288.401 160.022 288.759 160.213 289.107C160.63 289.864 160.884 290.698 160.818 291.559C160.718 292.865 160.625 294.172 160.539 295.479C160.479 296.381 160.675 297.271 161.098 298.069C161.734 299.272 161.623 300.67 161.022 301.891C160.693 302.559 160.396 303.268 160.27 303.927C159.978 305.445 161.8 306.176 163.261 305.671C164.158 305.361 165.029 304.908 165.858 304.505C167.923 303.502 169.883 304.881 169.802 307.175C169.738 309.017 169.535 310.884 170.625 311.835C171.756 312.822 173.363 314.091 174.913 315.286C176.57 316.563 178.781 316.369 180.644 315.419C180.966 315.255 181.393 315.124 181.861 315.007C184.027 314.467 184.21 312.87 183.042 310.968C180.084 306.143 178.67 301.687 186.21 303.352C188.155 303.781 190.916 303.705 192.381 305.046C193.026 305.636 193.169 306.408 192.907 307.242C192.206 309.469 192.568 311.833 194.019 313.662C194.648 314.455 195.081 315.291 195.017 316.219C194.984 318.546 191.331 319.949 193.443 322.31C194.596 323.6 198.106 325.761 199.703 325.944C203.263 326.345 206.013 320.158 206.1 317.24C206.183 314.349 205.057 311.238 203.117 309.151C200.857 306.557 195.552 306.972 195.528 303.126C195.516 301.15 196.959 298.67 197.556 296.498C197.596 296.352 197.652 296.212 197.728 296.081C197.771 296.008 197.809 295.929 197.84 295.85C197.889 295.727 197.938 295.61 197.989 295.497C199.333 292.475 200.729 289.521 200.412 286.228C200.255 284.587 200.847 283.481 202.351 282.46C205.013 280.652 208.275 278.077 207.097 275.082C206.659 273.969 205.716 273.218 204.312 270.877C202.943 268.595 206.772 265.183 209.869 263.282C211.416 262.332 213.285 262.354 215.095 262.486C216.052 262.556 217.063 262.536 217.953 262.344C219.866 261.932 220.16 259.505 218.544 258.4C217.328 257.569 215.799 256.895 214.808 255.532C211.92 251.56 211.036 248.309 210.909 244.656C210.816 241.954 208.484 240.921 205.943 241.845C203.709 242.659 202.508 240.243 200.878 238.527C199.929 237.528 198.317 237.127 197.401 238.156C196.638 239.013 196.194 240.268 195.34 240.912C194.235 241.745 192.679 240.811 192.063 239.572C191.755 238.954 191.546 238.277 191.398 237.583C190.538 233.538 195.886 230.917 199.816 229.775C201.243 229.36 202.736 229.728 203.74 230.824C206.238 233.552 210.598 232.766 213.551 230.539C213.976 230.219 214.444 229.859 214.965 229.433C216.973 227.792 219.329 225.254 220.837 223.123C222.11 221.325 220.632 219.252 220.271 217.427C219.685 213.756 224.92 209.584 226.956 206.604L227.23 206.2C228.691 204.062 228.67 201.849 229.832 199.857C230.214 199.201 230.884 198.66 231.637 198.129C233.665 196.7 233.579 194.452 232.798 192.097C231.621 188.551 233.57 183.565 236.658 181.573C237.135 181.265 237.766 181.004 238.411 180.779C239.549 180.381 240.563 179.638 241.054 178.537C241.527 177.479 241.465 176.295 241.178 175.172C241.099 174.864 241.043 174.564 241.018 174.253C240.923 173.084 241.611 171.755 242.776 171.89C242.819 171.895 242.862 171.901 242.906 171.907C244.8 172.197 246.25 171.133 247.508 169.688C248.281 168.799 249.031 168.028 249.606 166.634C250.174 165.253 249.569 163.578 248.795 162.024C248.032 160.491 246.736 159.319 245.33 158.342C244.819 157.986 244.347 157.602 243.974 157.178C240.723 153.487 246.508 152.131 246.487 148.835C246.475 147.152 243.634 146.489 242.147 145.305C241.053 144.424 240.36 143.125 240.234 141.711C239.905 138.164 242.14 134.567 244.523 131.413C245.663 129.904 244.646 127.446 242.781 127.756C242.341 127.829 242.074 128.082 241.897 128.491C241.336 129.789 241.296 131.8 240.626 132.938C238.901 135.871 237.487 137.417 236.237 139.85C235.299 141.678 235.334 143.85 236.283 145.672C238.078 149.117 240.266 151.757 240.782 156.534C240.899 157.621 240.876 158.446 240.741 159.058C239.713 163.714 232.353 162.314 231.75 167.044C231.613 168.112 231.186 169.362 230.393 170.091C226.498 173.673 221.861 170.243 223.278 179.326C223.347 179.765 223.246 180.153 223.026 180.508C221.011 183.75 219.305 186.36 221.811 189.24C223.481 191.159 224.957 193.174 224.772 195.388C224.732 195.861 224.551 196.405 224.212 196.739C223.803 197.142 223.146 196.964 222.632 196.706C219.406 195.084 212.285 187.568 211.244 185.144C210.832 184.181 210.973 181.297 210.271 179.152C209.788 177.678 208.071 177.033 206.936 178.09C205.552 179.378 204.219 181.714 202.937 183.226C201.585 184.818 199.682 183.281 200.589 181.4C201.824 178.839 204.754 176.075 205.319 173.766C205.678 172.304 205.109 171.312 204.33 170.273C203.347 168.962 202.833 166.919 204.45 166.654C205.985 166.401 208.265 166.796 209.566 165.943C210.235 165.505 210.791 164.936 211.335 164.354C211.692 163.973 211.757 163.4 211.494 162.949C211.067 162.2 210.699 161.564 210.492 160.891C210.026 159.372 211.123 157.626 212.707 157.733C213.609 157.794 214.592 158.152 215.567 158.582C218.388 159.826 220.933 158.568 221.629 155.565C221.777 154.929 221.931 154.321 222.115 153.786C222.6 152.382 223.079 151.174 223.485 149.989C224.549 146.883 221.977 144.365 218.697 144.219C217.796 144.179 216.967 144.086 216.303 143.89C216.199 143.859 216.115 143.783 216.068 143.684C216 143.541 216.021 143.37 216.135 143.259C217.441 141.984 220.684 140.771 223.525 138.13C224.104 137.591 224.44 136.848 224.543 136.064C225.067 132.033 228.489 132.015 230.457 129.139C231.421 127.733 231.906 125.214 231.468 123.558C231.263 122.783 230.739 122.359 230.063 122.033C227.751 120.916 225.023 120.211 222.525 119.672C220.716 119.282 218.515 118.763 216.686 119.259C213.301 120.178 211.013 128.371 204.1 129.922C200.788 130.665 198.25 128.712 194.564 128.671C192.771 128.65 192.21 130.713 193.576 131.873C194.794 132.907 194.792 134.835 193.419 135.651C192.38 136.269 191.401 136.661 190.412 136.691C188.08 136.763 185.167 137.088 183.518 138.739C181.913 140.342 180.374 139.972 178.999 138.936C176.439 137.006 173.089 135.664 170.758 137.867C169.883 138.693 169.6 139.873 170.095 140.97C170.288 141.399 170.523 141.842 170.756 142.288C171.968 144.609 170.296 145.586 168.028 144.276C167.712 144.094 167.405 143.951 167.117 143.884C166.294 143.69 165.39 143.692 164.541 143.688C164.391 143.688 164.265 143.805 164.259 143.955C164.643 148.9 165.523 156.939 167.287 161.428C167.59 162.198 172.109 166.142 173.027 167.245C174.48 168.989 176.014 171.059 177.478 172.717C177.738 173.012 177.825 173.51 177.467 173.674C177.299 173.751 177.054 173.762 176.884 173.69C171.198 171.286 164.507 167.314 161.05 161.826C160.152 160.398 160.785 157.691 161.355 155.435C161.718 153.998 161.697 152.469 161.045 151.139C158.72 146.397 155.019 146.902 151.401 152.632C150.982 153.295 150.809 154.614 150.739 155.8C150.675 156.872 151.035 158.011 151.713 158.845C154.665 162.474 153.812 164.333 150.062 161.534C149.702 161.265 149.3 160.987 148.848 160.701C147.415 159.794 146.28 158.479 146.883 156.894C149.581 149.805 143.342 150.643 136.688 153.302C135.843 153.639 129.76 163.173 129.29 164.594C125.877 174.886 122.274 167.338 123.682 179.612C123.699 179.762 123.626 179.918 123.495 179.992C123.34 180.079 123.145 180.045 123.036 179.904C121.933 178.477 119.346 174.242 119.316 172.649C119.298 171.668 120.951 169.894 121.649 169.092C123.503 167.224 124.268 164.077 125.74 162.02C129.359 156.964 132.658 151.678 138.133 148.965C139.295 148.389 140.651 148.335 141.904 148.667C144.237 149.286 146.7 148.727 148.436 147.051C150.756 144.812 153.604 142.12 154.915 141.465C157.954 139.944 158.98 141.94 162.179 140.093C163.111 139.555 163.452 138.408 163.157 137.373C163.006 136.841 163.026 136.276 163.22 135.758C163.417 135.232 163.617 134.682 163.759 134.134C164.114 132.766 163.267 131.506 161.862 131.354C161.53 131.318 161.251 131.274 161.098 131.148C159.796 130.077 153.386 125.768 152.331 124.253C152.239 124.122 152.284 123.955 152.404 123.849C152.462 123.798 152.534 123.765 152.61 123.757C154.037 123.603 155.307 124.257 156.451 124.236C161.243 124.15 164.106 125.149 168.229 127.454C169.772 128.315 173.42 128.761 175.178 128.465C176.028 128.322 177.96 126.801 178.822 126.273C181.9 123.996 187.452 122.093 188.476 118.014C188.762 116.881 183.817 111.638 183.002 110.094C181.622 107.492 177.966 105.4 176.655 108.038C176.324 108.703 175.986 109.587 175.482 110.831C175.275 111.346 175.047 111.916 174.757 112.435C173.91 113.949 171.879 113.75 171.149 112.175C170.276 110.293 170.512 107.954 171.364 106.062C172.707 103.078 174.418 99.6347 176.11 97.9057C177.565 96.4195 179.321 95.2352 180.858 93.6173C180.982 93.4833 181.026 93.2943 180.974 93.1198C180.928 92.9669 180.881 92.814 180.835 92.6611L180.74 92.3043C180.244 90.5053 180.366 89.581 180.432 88.4944C180.528 86.8991 179.478 85.223 178.149 86.1094C177.065 86.832 175.921 88.1098 175.087 88.4216C174.464 88.6545 173.554 88.6864 172.635 88.6447C171.024 88.5717 169.437 88.9181 168.032 89.7104C167.87 89.8021 167.707 89.8917 167.541 89.9798C166.351 90.6122 164.951 90.6413 163.652 90.2839C163.236 90.1694 162.818 90.058 162.4 89.9497C160.989 89.5845 159.878 88.4832 159.551 87.0632C159.358 86.2282 158.893 85.4768 158.207 84.9621C155.272 82.7567 155.083 83.2268 152.798 78.8728C151.505 76.4078 150.575 74.3713 149.837 72.4462C148.953 70.1401 142.418 69.2401 140.013 69.802C139.187 69.9949 138.63 70.3503 138.272 70.8138C136.614 72.9555 135.024 75.6669 132.577 74.5061C131.946 74.2065 131.23 74.125 130.563 74.3328C124.914 76.0924 127.754 79.8219 130.314 84.0686C130.74 84.7735 131.776 85.7458 132.706 86.7654C134.484 88.7139 132.887 89.9162 130.31 89.353C129.234 89.1177 128.271 89.2388 127.774 90.5017C125.698 95.7794 134.569 100.215 124.965 102.819C123.343 103.259 121.716 103.898 119.85 104.08C118.779 104.185 117.589 104.173 116.416 104.205C114.378 104.26 112.96 105.64 113.55 107.59C114.507 110.756 116.355 114.965 113.062 114.513C111.474 114.295 109.87 113.819 108.321 114.234C105.904 114.881 104.277 115.871 101.862 116.338C101.723 116.365 101.581 116.317 101.484 116.215C101.39 116.117 101.346 115.978 101.396 115.852C101.8 114.826 103.722 113.493 105.781 112.213C108.915 110.265 109.151 106.994 108.429 103.376C108.362 103.041 108.354 102.741 108.428 102.489C109.186 99.919 114.457 100.837 116.226 100.313C118.175 99.7546 120.067 99.0075 121.873 98.0827C123.358 97.3223 123.887 95.5101 123.202 93.9889C122.784 93.0626 122.82 91.9996 123.139 91.035C123.662 89.4533 124.119 87.2915 124.189 85.3362C124.292 82.4783 121.673 81.9323 120.236 84.4052C119.263 86.0814 118.173 87.742 116.429 87.6991C115.958 87.6875 115.422 87.4397 115.155 87.0525C114.856 86.6201 115.187 86.0771 115.414 85.6029C115.605 85.2045 115.787 84.7816 115.735 84.722C114.99 83.8613 114.415 83.1314 113.925 82.3686C112.853 80.7009 110.99 79.9078 109.01 80.0031C108.522 80.0266 108.052 79.9777 107.622 79.8113C107.436 79.7391 107.31 79.5694 107.262 79.3753C107.223 79.2182 107.238 79.0514 107.312 78.908C107.974 77.6412 108.948 77.03 110.239 76.3454C113.2 74.7761 114.842 77.7729 118.515 79.1775C118.695 79.2447 118.887 79.1092 118.892 78.9171C118.954 76.385 119.005 74.8535 119.353 73.7476C120.172 71.1426 120.178 68.6469 117.567 67.8471C117.52 67.8328 117.474 67.8183 117.43 67.8035C116.642 67.5438 116.678 66.7887 116.752 65.9628C116.79 65.5516 116.626 65.0824 116.34 64.7847C115.727 64.148 114.83 63.6982 113.847 63.3584C111.397 62.5107 109.379 60.7194 109.077 58.1444C108.908 56.7127 108.29 55.3336 107.206 54.3829C105.247 52.664 102.937 50.6829 102.836 48.3491C102.807 47.6737 103.036 46.8951 103.658 46.632C106.003 45.6437 111.066 46.1629 113.5 46.8091C114.155 46.9828 114.681 47.5902 114.806 48.1722C115.22 50.0759 111.344 49.6221 110.788 52.1135C110.667 52.659 110.661 53.2102 110.735 53.7588C111.066 56.232 114.175 55.8421 116.657 55.592C117.117 55.5458 117.656 55.6774 118.008 55.9761C119.455 57.2038 120.039 59.8068 120.861 61.4418C121.428 62.5732 122.243 63.8029 123.518 64.1641C125.079 64.6065 128.48 65.3809 129.931 64.4396C130.774 63.893 131.524 59.8907 132.169 55.5577C133.021 49.8407 128.041 44.3013 123.083 41.33C121.862 40.5977 120.906 39.7322 120.466 38.7308C119.912 37.4683 120.809 35.8226 122.182 35.9435C124.163 36.1178 126.608 38.2479 128.522 37.702C130.795 37.054 130.247 31.6185 131.103 29.5346C132.434 26.2997 135.479 25.6887 136.922 22.769C137.931 20.7345 135.98 19.1413 134.1 20.4158C131.667 22.0657 128.749 24.8049 126.563 24.7347C120.36 24.5359 121.048 12.0126 112.764 19.1664C112.142 19.7057 109.59 21.7326 108.909 22.0849C104.649 24.2989 101.222 27.8067 96.6322 29.0019C96.0963 29.1415 95.5302 29.0436 95.0513 28.7654C88.4675 24.8973 88.267 12.9036 88.9133 5.96745C89.0404 4.60906 88.1024 2.2517 88.5806 0.883649C88.6471 0.69326 88.8217 0.569737 89.0176 0.521646C89.164 0.485698 89.3194 0.49217 89.4546 0.558971C89.8066 0.732978 90.0731 0.972789 90.3249 1.25113C90.7745 1.74811 91.0737 2.36864 91.2079 3.02523C92.9589 11.5925 88.5862 15.8329 95.1037 22.0847C96.6565 23.5742 98.9154 23.9904 100.909 23.1798C103.157 22.2655 104.498 20.0925 105.091 17.739C105.606 15.6957 106.582 14.1169 109.168 12.7663C110.89 11.8768 112.771 11.3444 114.697 11.2001C122.205 10.6882 119.499 17.0453 124.959 18.5653C128.483 19.546 128.043 17.1996 129.83 15.1607C129.988 14.98 130.571 14.6244 131.257 14.2398C132.691 13.4347 133.252 11.6221 132.605 10.1093C131.713 8.02362 133.539 5.95473 135.788 6.25021L138.16 6.56182C139.909 6.79171 139.493 8.80531 139.863 10.5309C140.242 12.3048 142.308 14.5585 144.2 16.808C146.605 19.6677 143.383 21.0864 142.148 24.6132C141.26 27.1445 137.214 31.143 135.927 34.2494C135.355 35.6296 136.204 36.9855 137.662 37.3085C138.736 37.5463 139.718 37.85 139.545 39.3564C138.952 44.5359 137.567 49.5617 137.144 54.7504C137.033 56.1055 138.671 56.8291 139.38 55.6688C141.638 51.9597 142.698 46.5266 148.081 46.8346C150.058 46.9476 152.179 47.4212 153.479 49.1087C157.194 53.9232 157.272 61.5778 158.571 66.9485C159.146 69.3274 159.815 71.1046 160.451 73.0965C161.008 74.8411 163.364 75.2543 163.863 73.4921C163.96 73.1466 163.977 72.7023 163.871 72.3591C162.718 68.6123 159.433 59.4176 159.673 56.9569C159.963 53.9965 161.524 51.2188 161.569 48.2407C161.6 46.0303 160.089 43.592 161.161 41.4637C162.176 39.4475 164.706 39.2627 166.231 37.8763C167.405 36.8101 167.225 35.3099 168.043 34.0901C168.768 33.0053 175.517 26.9108 176.334 26.6865C177.426 26.3847 178.616 26.6292 179.547 27.2541C181.237 28.3876 182.884 32.3491 185.215 31.924C185.959 31.7883 186.777 31.1536 187.152 30.4995C187.751 29.4561 187.867 28.1509 188.034 26.9774C188.863 21.2178 188.335 17.8843 193.304 14.0799C193.5 13.9303 193.75 13.8656 193.994 13.8977C194.497 13.9637 194.862 14.4121 194.806 14.9158C194.326 19.2065 193.095 19.7914 192.183 23.6592C190.982 28.7546 193.969 33.4475 188.05 35.2939C186.339 35.8274 184.472 35.4536 183.034 34.3849C180.116 32.216 178.482 30.2 174.728 35.2725C174.178 36.0153 173.715 36.4693 173.212 36.7754C171.704 37.6934 169.952 38.204 168.683 39.4309C167.959 40.1311 167.264 40.8377 166.64 41.6104C165.386 43.1633 165.245 45.2692 165.75 47.2003C166.744 51.0051 167.869 54.568 169.206 58.3879C169.418 58.9932 169.588 59.6524 169.737 60.3412C170.611 64.3936 174.556 66.1933 178.671 66.6966C179.952 66.8534 180.572 67.7596 180.552 69.0509C180.546 69.47 180.516 69.9228 180.482 70.3903C180.246 73.6169 182.373 74.0208 183.071 70.8618C183.705 67.9914 184.199 64.3792 184.609 61.8224C184.898 60.023 185.864 58.3033 187.551 57.6127C189.333 56.8831 190.975 55.9227 192.206 54.4419C192.861 53.6549 193.532 52.9173 194.055 52.526C197.166 50.2004 200.355 49.8054 203.75 47.4913C206.402 45.6874 208.643 42.8637 211.384 41.7804C211.483 41.7415 211.59 41.7312 211.694 41.7472C211.937 41.7844 212.143 41.9603 212.162 42.2051C212.237 43.1761 211.663 44.1872 211.17 45.0609C209.457 48.0922 206.82 51.1456 203.435 52.151C200.517 53.0181 199.003 52.8379 197.169 53.9968C195.71 54.9187 195.07 56.6282 194.527 58.2665C194.023 59.787 193.223 61.0733 191.554 62.1378C187.585 64.6683 190.496 67.5317 190.841 71.0964C190.933 72.0874 190.418 73.4103 190.362 74.6807C190.307 75.9598 191.336 76.9369 192.543 77.3631C195.33 78.3468 199.058 78.8958 199.985 83.2021C200.224 84.3178 199.956 86.8326 199.466 87.71C197.985 90.3552 196.186 93.1058 194.474 95.8043C193.277 97.6913 193.537 100.03 194.457 102.067C195.31 103.951 195.908 108.395 197.167 110.869C197.741 111.999 199.059 112.149 199.671 111.039C200.437 109.648 201.857 108.692 203.44 108.828C204.038 108.88 204.633 108.907 205.173 108.869C206.376 108.786 207.153 107.691 207.075 106.488C206.841 102.892 204.11 97.8953 207.378 95.8429C209.087 95.0802 210.994 97.3583 212.495 97.9996C214.13 98.6977 218.228 99.1964 219.464 99.9936C223.138 102.367 224.486 103.598 226.718 104.15C230.07 104.98 233.054 102.047 233.629 98.6429C234.132 95.5514 233.945 92.3036 236.628 90.331C236.733 90.2555 236.837 90.1804 236.942 90.1057C237.813 89.4847 238.222 88.3826 237.983 87.3402C237.879 86.8884 237.926 86.4438 238.084 86.0078C238.909 83.7247 239.598 81.7479 241.956 80.4758C244.811 78.9349 248.895 81.4026 251.11 79.4229C252.579 78.1093 254.081 73.9527 256.38 72.5446C257.624 71.783 259.25 72.6089 259.558 74.0341C259.713 74.7517 259.743 75.5041 259.85 76.1394C260.085 77.5328 261.865 77.5407 262.907 76.586C263.364 76.1671 263.741 75.6683 263.981 75.1135C264.484 73.9464 263.879 72.6537 263.023 71.7143C262.253 70.87 261.476 70.1895 260.716 69.2507C258.82 66.904 256.586 64.342 255.133 61.5471C254.167 59.69 254.46 57.5199 255.464 55.6829C255.834 55.0047 256.226 54.2836 256.596 53.5804C257.878 51.1427 256.748 48.4845 254.042 48.996C249.575 49.8403 244.226 54.0218 240.33 55.1738C238.213 55.8 236.564 53.5907 238.126 52.03C238.999 51.1583 240.227 50.3562 241.446 49.6373C243.655 48.3345 244.473 45.6507 242.602 43.8961C241.958 43.2925 241.273 42.7352 240.574 42.1526C239.335 41.1182 239.44 39.3263 240.478 38.0895C240.898 37.5867 241.273 36.8705 241.666 36.1592C242.748 34.1997 245.005 34.4919 245.562 36.6597C245.59 36.7685 245.618 36.8754 245.645 36.9796C246.681 40.8568 252.978 41.6852 251.783 37.8544C250.626 34.1481 244.633 30.2656 248.126 22.0632" stroke="#A2A2A2"/>
</svg>
